<svg xmlns="http://www.w3.org/2000/svg" xmlns:xlink="http://www.w3.org/1999/xlink" viewBox="0 0 1278.77012 591.82362"><defs><style>.cls-1{fill:url(#linear-gradient);}.cls-2{fill:none;stroke:#000;stroke-miterlimit:10;stroke-width:2.14279px;}.cls-3{fill:url(#linear-gradient-2);}.cls-4{fill:url(#linear-gradient-3);}.cls-5{fill:url(#linear-gradient-4);}.cls-6{fill:url(#linear-gradient-5);}.cls-7{fill:url(#linear-gradient-6);}.cls-8{fill:url(#linear-gradient-7);}.cls-9{fill:url(#linear-gradient-8);}.cls-10{fill:url(#linear-gradient-9);}.cls-11{fill:url(#linear-gradient-10);}.cls-12{fill:#1f83c1;}.cls-13{fill:#4ab946;}.cls-14{fill:#555;}</style><linearGradient id="linear-gradient" x1="537.72027" y1="691.11723" x2="262.59029" y2="351.36" gradientUnits="userSpaceOnUse"><stop offset="0" stop-color="#25ade1"/><stop offset="0.18128" stop-color="#268dca"/><stop offset="0.41841" stop-color="#2869b2"/><stop offset="0.6411" stop-color="#294fa0"/><stop offset="0.84137" stop-color="#2a3f95"/><stop offset="1" stop-color="#2a3a91"/></linearGradient><linearGradient id="linear-gradient-2" x1="619.65628" y1="301.27419" x2="622.46471" y2="220.85132" gradientTransform="translate(52.86373 -83.52465) rotate(7.49885)" gradientUnits="userSpaceOnUse"><stop offset="0" stop-color="#3b9847"/><stop offset="0.02627" stop-color="#399647"/><stop offset="0.42535" stop-color="#1a7f41"/><stop offset="0.76405" stop-color="#07703e"/><stop offset="1" stop-color="#006b3d"/></linearGradient><linearGradient id="linear-gradient-3" x1="615.95533" y1="534.51532" x2="221.21508" y2="191.37286" gradientUnits="userSpaceOnUse"><stop offset="0" stop-color="#60b3d3"/><stop offset="0.07354" stop-color="#5aaed4"/><stop offset="0.38772" stop-color="#469cd5"/><stop offset="0.69855" stop-color="#3991d7"/><stop offset="1" stop-color="#358dd7"/></linearGradient><linearGradient id="linear-gradient-4" x1="870.86882" y1="508.31416" x2="436.57832" y2="470.31867" gradientUnits="userSpaceOnUse"><stop offset="0" stop-color="#93e2e9"/><stop offset="0.18442" stop-color="#73c9df"/><stop offset="0.39174" stop-color="#56b3d7"/><stop offset="0.59851" stop-color="#42a3d1"/><stop offset="0.80235" stop-color="#3599cd"/><stop offset="1" stop-color="#3196cc"/></linearGradient><linearGradient id="linear-gradient-5" x1="880.93442" y1="538.22623" x2="363.77332" y2="492.98049" gradientUnits="userSpaceOnUse"><stop offset="0" stop-color="#25bada"/><stop offset="0.05154" stop-color="#24b3d7"/><stop offset="0.29278" stop-color="#2196ca"/><stop offset="0.5331" stop-color="#1f82c0"/><stop offset="0.77012" stop-color="#1d75bb"/><stop offset="1" stop-color="#1d71b9"/></linearGradient><linearGradient id="linear-gradient-6" x1="632.80032" y1="543.73279" x2="629.39826" y2="543.43515" gradientUnits="userSpaceOnUse"><stop offset="0" stop-color="#93e2e9"/><stop offset="0.67423" stop-color="#52b0d6"/><stop offset="1" stop-color="#3196cc"/></linearGradient><linearGradient id="linear-gradient-7" x1="808.90931" y1="640.32671" x2="631.9218" y2="624.84231" gradientUnits="userSpaceOnUse"><stop offset="0" stop-color="#25bada"/><stop offset="0.89503" stop-color="#1e79bd"/><stop offset="1" stop-color="#1d71b9"/></linearGradient><linearGradient id="linear-gradient-8" x1="767.42557" y1="415.64948" x2="710.26622" y2="383.31179" gradientUnits="userSpaceOnUse"><stop offset="0" stop-color="#93ce40"/><stop offset="0.28165" stop-color="#6fc443"/><stop offset="0.57589" stop-color="#50bb46"/><stop offset="0.8259" stop-color="#3db647"/><stop offset="1" stop-color="#36b448"/></linearGradient><linearGradient id="linear-gradient-9" x1="732.58114" y1="394.87443" x2="666.70956" y2="356.07488" gradientUnits="userSpaceOnUse"><stop offset="0" stop-color="#429337"/><stop offset="0.41125" stop-color="#3a983f"/><stop offset="1" stop-color="#339d45"/></linearGradient><linearGradient id="linear-gradient-10" x1="744.50193" y1="374.63602" x2="678.63035" y2="335.83647" xlink:href="#linear-gradient-8"/></defs><title>Aimerr Logo New</title><g id="Layer_2" data-name="Layer 2"><path class="cls-1" d="M408.854,453.35852c-3.2117,16.60685-16.26694,77.45828-15.8322,141.07109-1.53407,33.89888,6.963,131.42727,14.36126,202.23261-41.343-25.54561-79.6397-53.39775-97.04729-117.80581-8.51233-44.67947-11.12347-72.22411-11.12347-106.61275a621.52413,621.52413,0,0,1,19.16577-153.62194q1.69722-6.68451,3.55116-13.31685,7.61149-27.32555,17.62518-53.59792c6.66019-17.51975,24.53712-60.93,34.75424-79.75286,5.07721-8.12354,16.26739-23.62211,16.9724-24.80581,31.4816,3.14206,51.76763,32.07351,67.88958,55.124C458.79637,302.96865,420.00356,394.24238,408.854,453.35852Z" transform="translate(-299.2123 -218.49487)"/><path class="cls-2" d="M407.38306,542.642" transform="translate(-299.2123 -218.49487)"/><path class="cls-3" d="M718.28543,298.87436c-10.72392-3.76434-22.2789-4.41625-33.99763-5.95881-14.26435-1.87765-53.81051.70367-60.18286.96222a69.68167,69.68167,0,0,1-50.091-18.2168c-6.45857-5.88922-18.29982-19.86125-26.98735-39.27364q2.41348-1.32835,4.87488-2.55383c1.19358-.59786,2.40335-1.18485,3.62694-1.74366,19.14206-8.90156,40.65133-11.97791,62.57163-13.3069,15.07957-.83308,51.04551-.50577,83.48977,10.05059,6.30394,8.798,10.2238,19.83409,12.82562,28.94666A113.41779,113.41779,0,0,1,718.28543,298.87436Z" transform="translate(-299.2123 -218.49487)"/><path class="cls-4" d="M884.055,809.14348c-95.06283-24.63173-178.74979-73.58186-237.75281-148.565C585.37563,582.2443,559.26425,529.15117,525.8852,440.799c-5.0395-12.55957-19.13094-48.58457-32.48255-76.73264-12.88161-26.98176-33.40516-59.93432-34.232-61.79693-14.93571-21.28077-37.02593-41.01227-55.01667-41.01227-6.09265,0-20.61929-1.88-40.8382,33.44868q.75723-1.93224,1.58409-3.83837c3.42059-6.86729,16.2848-30.324,33.77942-33.49219,21.47226-2.68077,43.519,9.93973,65.56567,46.3477,29.88882,45.84288,54.25944,102.55679,73.547,159.13144,6.60618,15.34479,15.31868,38.375,26.69453,62.09286,16.37183,34.13628,38.7841,70.89239,62.66731,104.8807,42.30043,55.40835,50.19477,69.19515,105.899,110.67743C788.026,781.90061,864.66293,803.99954,884.055,809.14348Z" transform="translate(-299.2123 -218.49487)"/><path class="cls-5" d="M627.81532,538.35978c-66.584-113.071-74.56539-197.56739-107.19591-241.948-11.09734-17.73833-21.68985-30.81143-31.264-40.44653-26.46823-26.63361-45.13787-26.98176-45.13787-26.98176l-.0087-.383c3.85578-.05222,8.0336-.06093,12.55957-.04352a117.78438,117.78438,0,0,1,26.69453,3.04633,117.18252,117.18252,0,0,1,41.32561,18.66093c.33074.235.66149.47871.99223.71371a118.125,118.125,0,0,1,13.92607,11.90679c.60056.59186,1.18372,1.18372,1.75817,1.78428a117.86566,117.86566,0,0,1,14.78774,18.95686q2.5328,4.02115,4.73486,8.2599c8.12064,15.62331,14.927,26.8425,20.32336,39.40207,6.09265,16.81573,11.19308,29.54938,15.3796,42.35266,7.55489,23.11727,14.77034,40.28986,24.95377,63.25046,7.12841,14.79645,13.0731,30.66346,21.46355,44.67657,24.57081,41.0732,48.74124,81.81565,84.2179,118.75455a548.59468,548.59468,0,0,0,62.43231,52.29239c.0087.0087.0087.0087.01741.0087q20.393,14.66154,42.15247,27.44306l.0087.0087a169.135,169.135,0,0,1,48.1929,73.03353s-.03482-.01741-.09574-.04352a.4115.4115,0,0,0-.10445-.06093h-.0087c-.13056-.07833-.33074-.18278-.59186-.31334-.0087.0087-.0087.0087-.0087,0-5.10042-2.67206-33.70979-17.56425-66.5405-33.30071-32.97-19.01779-110.70354-65.97475-179.99444-173.19677,0,0,.0087-.0087,0-.0087q-1.65807-2.572-3.31615-5.19616C628.9207,540.11795,628.36366,539.23886,627.81532,538.35978Z" transform="translate(-299.2123 -218.49487)"/><path class="cls-6" d="M885.49981,809.51774c-.26982-.06093-.53093-.13056-.792-.20889-.20889-.05222-.42649-.10445-.65278-.16537-19.39205-5.14394-96.02895-27.24287-151.0021-68.63811-55.70427-41.48228-63.59861-55.26908-105.899-110.67743-23.88321-33.98831-46.29547-70.74443-62.66731-104.8807-11.37586-23.71784-20.08835-46.74807-26.69453-62.09286-19.2876-56.57465-43.65822-113.28857-73.547-159.13144-22.04671-36.408-44.09341-49.02847-65.56567-46.3477-17.49462,3.16818-30.35883,26.6249-33.77942,33.49219,8.93009-20.94133,21.98578-38.92336,28.47881-45.96473,11.6979-13.22106,23.54376-15.91053,50.83015-16.3022l.0087.383s18.66964.34815,45.13787,26.98176c9.57417,9.6351,20.16669,22.7082,31.264,40.44653,32.63052,44.38064,40.6119,128.87706,107.19591,241.948.54834.87908,1.10538,1.75817,1.65372,2.62855,1.10538,1.74946,2.20206,3.48152,3.31615,5.19616.0087,0,0,.0087,0,.0087C701.99775,653.52837,778.19075,702.81795,812.77962,719.39c32.34329,15.87572,61.37915,30.67217,66.5405,33.30071,0,.0087,0,.0087.0087,0,.26111.13926.4613.24371.59186.31334h.0087a.4115.4115,0,0,1,.10445.06093c.06093.02611.09574.04352.09574.04352a167.62971,167.62971,0,0,1,6.91081,29.49715,171.07752,171.07752,0,0,1,1.65372,23.75265c0,1.323-.01741,2.646-.04352,3.96023,0,0-.05222-.0087-.148-.03482-.087-.02611-.18278-.04352-.26982-.06963a1.69254,1.69254,0,0,1-.17408-.04352Z" transform="translate(-299.2123 -218.49487)"/><path class="cls-7" d="M632.78519,546.18449c-1.11409-1.71465-2.21076-3.4467-3.31615-5.19616Q631.12711,543.61252,632.78519,546.18449Z" transform="translate(-299.2123 -218.49487)"/><path class="cls-8" d="M632.78519,546.19319c69.29089,107.222,147.02447,154.179,179.99444,173.19677C778.19075,702.81795,701.99775,653.52837,632.78519,546.19319Z" transform="translate(-299.2123 -218.49487)"/><path class="cls-9" d="M714.49941,532.31544s-30.44137-43.84559-17.9927-84.1963c17.66859-58.39772,46.17071-85.98651,51.45151-126.10437,5.37621-40.84273-1.3283-64.13773-1.5406-64.8592a121.80344,121.80344,0,0,1,16.82947,20.40513c5.3568,9.12407,19.97788,32.76761,11.62166,67.37134-15.35876,47.7194-38.17972,65.495-49.68613,130.69985-3.09078,23.48047,1.1372,44.78149,15.01558,61.79578q-2.3875-.16942-4.78158-.48895A115.87886,115.87886,0,0,1,714.49941,532.31544Z" transform="translate(-299.2123 -218.49487)"/><path class="cls-10" d="M666.023,480.42471a109.585,109.585,0,0,1-1.66677-36.08988c2.92822-15.44286,10.49368-32.10132,12.80488-38.52171,2.31234-6.429,24.05121-45.99578,31.61973-64.61153,7.53852-18.32121,11.15322-29.1087,13.34891-45.78924,1.42817-17.519-1.64677-36.50863-6.13063-45.72849-9.50445-20.56461-33.18624-25.72738-33.18624-25.72738l.03021-.16282c6.59257,1.40331,13.64633,3.43794,18.74668,5.03987,17.23671,5.97359,32.62241,16.33877,44.82787,28.322.21229.72148,6.91681,24.01647,1.5406,64.8592-5.2808,40.11786-33.78292,67.70665-51.45151,126.10437-12.44867,40.35071,17.9927,84.1963,17.9927,84.1963a69.0937,69.0937,0,0,1-21.91607-11.374C676.9819,510.54783,667.99,489.35716,666.023,480.42471Z" transform="translate(-299.2123 -218.49487)"/><path class="cls-11" d="M704.05729,238.16547c-3.541-3.97766-12.40737-11.31631-26.226-15.31245,1.608.25556,3.2955.57426,5.01182.94064l-.03021.16282s23.68179,5.16276,33.18624,25.72738c4.48386,9.21985,7.5588,28.20949,6.13063,45.72849-2.19569,16.68054-5.81039,27.468-13.34891,45.78924-7.56851,18.61575-29.30739,58.18251-31.61973,64.61153-2.3112,6.42039-9.87666,23.07885-12.80488,38.52171,3.00673-22.8419,18.65506-53.88721,28.91292-75.32691,6.62174-13.49061,19.66627-40.42777,24.47755-65.17418q.32714-2.48525.53869-4.95939a113.41461,113.41461,0,0,0-3.87-41.09415A57.25653,57.25653,0,0,0,704.05729,238.16547Z" transform="translate(-299.2123 -218.49487)"/></g><g id="Layer_5" data-name="Layer 5"><path class="cls-12" d="M818.31641,588.64844H776.6665V587.248l63.875-121.7998a9.02544,9.02544,0,0,1,2.4502-3.32471,7.50092,7.50092,0,0,1,4.19971-.875H891.1167a7.9922,7.9922,0,0,1,4.2876.875,9.87056,9.87056,0,0,1,2.7124,3.32471L961.46582,587.248v1.40039H852.44141l-10.5-27.65039v-3.5H887.354q4.10962,0,7.2627.08789,3.15015.09082,5.6001.2627,2.44849.17578,4.72461.34961l.52539-1.22461q-1.05029-1.92334-2.1875-3.7627-1.14038-1.83691-2.5376-4.46289-1.40259-2.625-3.3252-6.2998-1.92773-3.67529-4.7251-9.27441l-20.125-40.25049a2.58759,2.58759,0,0,0-2.44971-1.2251h-2.1001a2.42073,2.42073,0,0,0-2.2749,1.2251Z" transform="translate(-299.2123 -218.49487)"/><path class="cls-12" d="M971.78809,477.52344v-25.375h31.67481v25.375Zm0,111.125v-96.0752h31.67481v96.0752Z" transform="translate(-299.2123 -218.49487)"/><path class="cls-12" d="M1117.56055,492.57324h49.52539a53.924,53.924,0,0,1,18.19922,2.71289,30.30577,30.30577,0,0,1,12.16309,7.69971,29.99283,29.99283,0,0,1,6.73731,11.98779,54.74564,54.74564,0,0,1,2.09961,15.75v57.9248h-31.6748v-56q0-8.39941-3.14941-11.6377-3.15088-3.23584-10.15039-3.2373h-29.75a42.46972,42.46972,0,0,1,1.75,12.9502v57.9248h-31.67481v-56q0-8.39941-3.15039-11.6377-3.14942-3.23584-10.14941-3.2373h-30.4502l-5.25-14h-1.22559v84.875h-31.6748v-96.0752h74.375q10.32422,0,17.15039,2.71289a35.66177,35.66177,0,0,1,11.72461,7.4375l.7002-.52539q-1.57471-1.92334-3.15039-3.9375a45.96138,45.96138,0,0,1-2.97461-4.28711Z" transform="translate(-299.2123 -218.49487)"/><path class="cls-13" d="M1253.18359,533.873H1251.959v14.875q0,8.228,2.7998,11.28809,2.79785,3.063,10.5,3.0625h68.42481v25.5498h-74.375a53.06458,53.06458,0,0,1-18.11231-2.71289,31.0666,31.0666,0,0,1-12.16211-7.69922,29.42065,29.42065,0,0,1-6.8252-11.98828,54.716,54.716,0,0,1-2.10059-15.75V530.72363a54.74451,54.74451,0,0,1,2.10059-15.75,29.43791,29.43791,0,0,1,6.8252-11.98779,31.10054,31.10054,0,0,1,12.16211-7.69971,53.13628,53.13628,0,0,1,18.11231-2.71289h55.47559q11.02441,0,15.75,5.6875,4.72412,5.68945,4.72461,17.7627v9.27539q0,10.67578-4.72461,16.97461-4.72559,6.30029-15.75,6.2998H1258.6084Zm-1.22461-4.72461h48.2998q5.42285,0,5.42481-5.59961v-3.5q0-2.97363-1.3125-4.2002a5.88468,5.88468,0,0,0-4.11231-1.2251h-35q-7.35059,0-10.32519,3.062-2.978,3.06445-2.97461,10.9375Z" transform="translate(-299.2123 -218.49487)"/><path class="cls-13" d="M1429.4082,532.82324h-1.39941v-13.125q0-1.92334-1.75-1.9248H1387.584q-4.20117,0-5.9502,1.9248-1.752,1.92773-1.75,6.65039v62.2998H1348.209v-69.125q0-12.24756,6.38672-19.6001,6.38672-7.34985,20.3877-7.3501h77.875q4.54834,0,4.5498,4.7251v24.8501Z" transform="translate(-299.2123 -218.49487)"/><path class="cls-13" d="M1549.98242,532.82324H1548.583v-13.125q0-1.92334-1.75-1.9248H1508.1582q-4.20117,0-5.95019,1.9248-1.752,1.92773-1.75,6.65039v62.2998H1468.7832v-69.125q0-12.24756,6.38672-19.6001,6.38672-7.34985,20.38769-7.3501h77.875q4.54834,0,4.54981,4.7251v24.8501Z" transform="translate(-299.2123 -218.49487)"/><path class="cls-14" d="M1267.75977,640.06543A51.29926,51.29926,0,0,0,1276.334,643.75a23.86473,23.86473,0,0,0,6.87891,1.05762,10.29373,10.29373,0,0,0,5.44629-1.26562,3.74,3.74,0,0,0,2.05371-3.252q0-2.85059-7.31152-6.40723-1.16895-.57715-1.80957-.89746l-3.69336-1.76172a22.478,22.478,0,0,1-7.99023-5.86328,11.56265,11.56265,0,0,1-2.60059-7.40039,10.90146,10.90146,0,0,1,4.97461-9.19434q4.97461-3.5874,12.85254-3.58789a37.67225,37.67225,0,0,1,6.29395.57617,66.84865,66.84865,0,0,1,7.53906,1.79395v10.89258a46.81072,46.81072,0,0,0-7.501-3.26758,20.08966,20.08966,0,0,0-6.03027-1.15332,8.01274,8.01274,0,0,0-4.335,1.00977,3.10423,3.10423,0,0,0-1.583,2.73828,3.36537,3.36537,0,0,0,.94238,2.27539,8.48588,8.48588,0,0,0,2.82715,1.92188l6.40723,3.01172q8.02881,3.78076,10.79883,6.98438a11.22961,11.22961,0,0,1,2.76953,7.59277,13.17791,13.17791,0,0,1-5.44629,10.97266q-5.44629,4.18066-14.4541,4.18066a44.2926,44.2926,0,0,1-6.63379-.54492,72.81407,72.81407,0,0,1-7.877-1.69824Z" transform="translate(-299.2123 -218.49487)"/><path class="cls-14" d="M1308.88086,638.752a14.16762,14.16762,0,0,1,5.29492-11.34082q5.29541-4.45312,13.39941-4.45312,8.1416,0,13.45508,4.45313a14.77536,14.77536,0,0,1,0,22.69824q-5.31445,4.46924-13.45508,4.46973-8.06689,0-13.38086-4.46973A14.19272,14.19272,0,0,1,1308.88086,638.752Zm12.06055,0a9.02974,9.02974,0,0,0,1.86621,5.94336,6.14739,6.14739,0,0,0,9.53516-.01562,10.31946,10.31946,0,0,0,0-11.83789,6.12005,6.12005,0,0,0-9.53516-.0166A9.04425,9.04425,0,0,0,1320.94141,638.752Z" transform="translate(-299.2123 -218.49487)"/><path class="cls-14" d="M1364.92676,653.20117h-11.94824v-45.7168l11.94824-1.37793Z" transform="translate(-299.2123 -218.49487)"/><path class="cls-14" d="M1395.833,624.33594h11.72168v28.86523l-10.89258,1.37793v-5.63867a18.921,18.921,0,0,1-5.7666,4.26074,15.69159,15.69159,0,0,1-6.5957,1.37793q-5.39062,0-8.19824-2.627-2.80811-2.62646-2.80762-7.68945V624.33594h11.79688v17.10742a4.868,4.868,0,0,0,1.09375,3.44434,4.22581,4.22581,0,0,0,3.24121,1.16895,6.17807,6.17807,0,0,0,4.749-1.77832,7.21677,7.21677,0,0,0,1.6582-5.10937Z" transform="translate(-299.2123 -218.49487)"/><path class="cls-14" d="M1418.335,643.49414V631.92871h-4.9375v-7.59277h4.9375v-8.65039l12.06055-1.37793v10.02832h8.02832v7.59277h-8.02832v12.26953q0,3.90967,1.24414,5.65527a10.95267,10.95267,0,0,0,4.67383,3.21973l-13.418.76855a6.46429,6.46429,0,0,1-3.543-3.05957Q1418.33447,648.749,1418.335,643.49414Z" transform="translate(-299.2123 -218.49487)"/><path class="cls-14" d="M1442.87207,613.57129a4.94631,4.94631,0,0,1,1.88379-3.90918,7.45812,7.45812,0,0,1,9.21582-.01562,4.95193,4.95193,0,0,1,1.86523,3.9248,5.03883,5.03883,0,0,1-1.88379,3.94043,7.20852,7.20852,0,0,1-9.15918-.01562A5.01878,5.01878,0,0,1,1442.87207,613.57129Zm12.5127,39.62988h-11.94824V624.33594l11.94824-1.37793Z" transform="translate(-299.2123 -218.49487)"/><path class="cls-14" d="M1462.01953,638.752a14.16762,14.16762,0,0,1,5.29492-11.34082q5.29541-4.45312,13.39941-4.45312,8.1416,0,13.45508,4.45313a14.77536,14.77536,0,0,1,0,22.69824q-5.31445,4.46924-13.45508,4.46973-8.06689,0-13.38086-4.46973A14.19272,14.19272,0,0,1,1462.01953,638.752Zm12.06055,0a9.02974,9.02974,0,0,0,1.86621,5.94336,6.14739,6.14739,0,0,0,9.53516-.01562,10.31946,10.31946,0,0,0,0-11.83789,6.12005,6.12005,0,0,0-9.53516-.0166A9.04425,9.04425,0,0,0,1474.08008,638.752Z" transform="translate(-299.2123 -218.49487)"/><path class="cls-14" d="M1518.2168,653.20117h-11.79785V624.33594h10.89258v4.83691a18.79053,18.79053,0,0,1,5.7666-4.24414,15.77526,15.77526,0,0,1,6.63379-1.39355q5.38916,0,8.17871,2.627,2.78906,2.62646,2.78906,7.68848v19.35059H1528.958V636.66992a4.81014,4.81014,0,0,0-1.09277-3.42773,4.25889,4.25889,0,0,0-3.24121-1.15332,6.20952,6.20952,0,0,0-4.749,1.76172,7.20613,7.20613,0,0,0-1.6582,5.126Z" transform="translate(-299.2123 -218.49487)"/><path class="cls-14" d="M1549.19824,651.8877v-7.94531a49.74531,49.74531,0,0,0,6.97266,3.28418,14.32551,14.32551,0,0,0,4.59863.84863,5.6756,5.6756,0,0,0,2.97754-.68848,2.06033,2.06033,0,0,0,1.13086-1.81055,1.98224,1.98224,0,0,0-.792-1.60156,8.32642,8.32642,0,0,0-2.71387-1.21777L1557,641.44336a14.76827,14.76827,0,0,1-6.52051-3.50781,7.35162,7.35162,0,0,1-2.22363-5.334,8.284,8.284,0,0,1,3.58105-7q3.58008-2.644,9.53516-2.64355a27.91507,27.91507,0,0,1,5.82324.65723,51.62352,51.62352,0,0,1,6.84082,2.03418l-1.46973,7.01563a19.05535,19.05535,0,0,0-4.9375-2.5625,15.33781,15.33781,0,0,0-5.01269-.92969,5.22953,5.22953,0,0,0-2.82715.68945,2.024,2.024,0,0,0-1.09277,1.74609,1.77444,1.77444,0,0,0,.62207,1.42578,8.42893,8.42893,0,0,0,2.76953,1.13672l4.07129,1.25q4.78564,1.44141,6.84082,3.49121a7.23223,7.23223,0,0,1,2.05371,5.35059,8.93026,8.93026,0,0,1-3.69336,7.54492q-3.69434,2.77-10.06348,2.77148a28.36374,28.36374,0,0,1-6.08691-.65723A29.75854,29.75854,0,0,1,1549.19824,651.8877Z" transform="translate(-299.2123 -218.49487)"/></g></svg>