<svg xmlns="http://www.w3.org/2000/svg" viewBox="0 0 1676.7494 455.0577"><defs><style>.cls-1{isolation:isolate;}.cls-2,.cls-3{fill:#21bff0;}.cls-3{mix-blend-mode:multiply;}.cls-4{fill:#20b26b;}</style></defs><title>BarrelYene Logo</title><g class="cls-1"><g id="Layer_1" data-name="Layer 1"><polygon class="cls-2" points="284.313 0 183.967 132.4 183.967 365.146 383.57 455.058 465.142 283.334 284.313 197.904 284.313 0"/><polygon class="cls-2" points="97.558 281.525 0 423.681 183.967 365.146 183.967 242.835 97.558 281.525"/><polygon class="cls-3" points="183.967 242.835 183.967 365.146 284.312 197.904 183.967 242.835"/><path class="cls-2" d="M721.0459,325.86865c7.86523-1.65576,20.2832-2.89746,32.90869-2.89746,18.00635,0,29.59668,3.10449,38.28955,10.1416,7.24365,5.38135,11.58984,13.65967,11.58984,24.62939,0,13.45313-8.89941,25.25049-23.59424,30.63135v.41406c13.24609,3.31152,28.76855,14.28076,28.76855,34.978a37.60182,37.60182,0,0,1-11.79736,27.94092c-9.72754,8.8999-25.457,13.03906-48.22363,13.03906a210.46838,210.46838,0,0,1-27.94141-1.65576Zm18.00684,57.124h16.35059c19.041,0,30.21777-9.93457,30.21777-23.3877,0-16.35059-12.41846-22.76709-30.63184-22.76709-8.27881,0-13.03906.62109-15.93652,1.24219Zm0,66.85107a96.18359,96.18359,0,0,0,15.1084.82813c18.62744,0,35.80615-6.83008,35.80615-27.11328,0-19.041-16.35059-26.90625-36.0127-26.90625H739.05273Z" transform="translate(-125.86974 -294.25004)"/><path class="cls-2" d="M888.06543,463.50391l-1.44873-12.625h-.62061c-5.58838,7.86475-16.35059,14.90186-30.63184,14.90186-20.2832,0-30.63135-14.28125-30.63135-28.769,0-24.21533,21.5249-37.46143,60.228-37.25488V397.6875c0-8.27881-2.27637-23.18066-22.7666-23.18066a49.91192,49.91192,0,0,0-26.07812,7.45068l-4.13965-12.00439c8.27881-5.38086,20.2832-8.89941,32.9082-8.89941,30.63184,0,38.08252,20.90381,38.08252,40.98v37.46143a141.05995,141.05995,0,0,0,1.65576,24.00879ZM885.375,412.38232c-19.86914-.41406-42.42871,3.10449-42.42871,22.55957,0,11.79736,7.86475,17.38574,17.17822,17.38574,13.03906,0,21.31787-8.27881,24.21582-16.76465a19.02007,19.02007,0,0,0,1.03467-5.79541Z" transform="translate(-125.86974 -294.25004)"/><path class="cls-2" d="M932.35254,394.583c0-11.79736-.207-21.939-.82812-31.25293h15.937l.62061,19.6626h.82813c4.55322-13.45312,15.52246-21.939,27.73438-21.939a19.69073,19.69073,0,0,1,5.17383.62109V378.853a27.35222,27.35222,0,0,0-6.209-.62061c-12.832,0-21.939,9.72754-24.42285,23.38721a51.30911,51.30911,0,0,0-.82764,8.48584v53.39844H932.35254Z" transform="translate(-125.86974 -294.25004)"/><path class="cls-2" d="M1000.85645,394.583c0-11.79736-.207-21.939-.82812-31.25293h15.93652l.62109,19.6626h.82813c4.55273-13.45312,15.52246-21.939,27.7334-21.939a19.69839,19.69839,0,0,1,5.1748.62109V378.853a27.35824,27.35824,0,0,0-6.209-.62061c-12.833,0-21.93945,9.72754-24.42285,23.38721a51.25349,51.25349,0,0,0-.82812,8.48584v53.39844h-18.00586Z" transform="translate(-125.86974 -294.25004)"/><path class="cls-2" d="M1076.60449,416.72852c.41406,24.62939,16.14356,34.771,34.35742,34.771,13.03906,0,20.90332-2.27637,27.7334-5.17432l3.10449,13.03906c-6.416,2.89795-17.38574,6.20947-33.32227,6.20947-30.83789,0-49.25879-20.2832-49.25879-50.501,0-30.21729,17.79981-54.019,46.98242-54.019,32.70117,0,41.39355,28.76855,41.39355,47.189a68.716,68.716,0,0,1-.62012,8.48584Zm53.39844-13.03906c.207-11.59033-4.76074-29.59668-25.251-29.59668-18.41992,0-26.49219,16.97168-27.94043,29.59668Z" transform="translate(-125.86974 -294.25004)"/><path class="cls-2" d="M1170.14941,316.55518h18.21387V463.50391h-18.21387Z" transform="translate(-125.86974 -294.25004)"/><path class="cls-2" d="M1225.61426,363.33008l21.93945,59.19385c2.27637,6.623,4.75977,14.48779,6.416,20.48975h.41406c1.86231-6.002,3.93262-13.65967,6.416-20.90381l19.86914-58.77979h19.248l-27.32031,71.40479c-13.03906,34.35742-21.93848,51.94971-34.35645,62.7124-8.90039,7.86426-17.7998,10.96875-22.35352,11.79688l-4.55273-15.31543a48.189,48.189,0,0,0,15.93652-8.8999,55.218,55.218,0,0,0,15.31543-20.2832,13.07234,13.07234,0,0,0,1.44922-4.34619,15.8719,15.8719,0,0,0-1.24219-4.76025l-37.04785-92.30908Z" transform="translate(-125.86974 -294.25004)"/><path class="cls-2" d="M1324.542,416.72852c.41406,24.62939,16.14453,34.771,34.35742,34.771,13.03906,0,20.9043-2.27637,27.73438-5.17432l3.10449,13.03906c-6.416,2.89795-17.38574,6.20947-33.32227,6.20947-30.83887,0-49.25879-20.2832-49.25879-50.501,0-30.21729,17.79883-54.019,46.98145-54.019,32.70215,0,41.39453,28.76855,41.39453,47.189a68.675,68.675,0,0,1-.62109,8.48584Zm53.39844-13.03906c.207-11.59033-4.75977-29.59668-25.25-29.59668-18.4209,0-26.49219,16.97168-27.94141,29.59668Z" transform="translate(-125.86974 -294.25004)"/><path class="cls-2" d="M1418.08691,390.44336c0-10.34863-.207-18.834-.82715-27.11328h16.14355l1.03516,16.55762h.41309c4.96777-9.52051,16.55762-18.834,33.11523-18.834,13.86719,0,35.39258,8.27881,35.39258,42.63574v59.81445h-18.21387V405.75928c0-16.14355-6.002-29.59668-23.18066-29.59668-12.00391,0-21.31738,8.48584-24.42187,18.62744a26.17752,26.17752,0,0,0-1.24219,8.48535v60.22852h-18.21387Z" transform="translate(-125.86974 -294.25004)"/><path class="cls-2" d="M1543.0918,416.72852c.41406,24.62939,16.14355,34.771,34.35742,34.771,13.03906,0,20.9043-2.27637,27.73438-5.17432l3.10449,13.03906c-6.416,2.89795-17.38574,6.20947-33.32227,6.20947-30.83887,0-49.25879-20.2832-49.25879-50.501,0-30.21729,17.79883-54.019,46.98145-54.019,32.70215,0,41.39453,28.76855,41.39453,47.189a68.67523,68.67523,0,0,1-.62109,8.48584Zm53.39844-13.03906c.207-11.59033-4.75977-29.59668-25.25-29.59668-18.4209,0-26.49219,16.97168-27.94141,29.59668Z" transform="translate(-125.86974 -294.25004)"/><path class="cls-4" d="M739.05273,572.36133v139.498H721.0459v-139.498Z" transform="translate(-125.86974 -294.25004)"/><path class="cls-4" d="M771.95752,638.79883c0-10.34863-.207-18.834-.82812-27.11328h16.144l1.03467,16.55762h.41406c4.96729-9.52051,16.55762-18.834,33.11523-18.834,13.8667,0,35.3916,8.27832,35.3916,42.63574v59.81445H839.01563V654.11426c0-16.14355-6.002-29.59668-23.18066-29.59668-12.00391,0-21.31787,8.48633-24.42236,18.62793a26.19142,26.19142,0,0,0-1.2417,8.48535v60.22852H771.95752Z" transform="translate(-125.86974 -294.25004)"/><path class="cls-4" d="M907.93213,582.917v28.76855h26.07813v13.86719H907.93213v54.01953c0,12.418,3.51807,19.45508,13.65967,19.45508a40.50489,40.50489,0,0,0,10.55566-1.24219l.82813,13.66016c-3.51855,1.44922-9.10693,2.4834-16.144,2.4834-8.48584,0-15.31592-2.69043-19.66211-7.65723-5.17432-5.38184-7.03711-14.28125-7.03711-26.07812V625.55273H874.60986V611.68555h15.52246V587.67773Z" transform="translate(-125.86974 -294.25004)"/><path class="cls-4" d="M963.39746,665.084c.41309,24.62988,16.14355,34.77148,34.35645,34.77148,13.03906,0,20.9043-2.27734,27.73437-5.1748l3.10449,13.03906c-6.416,2.89746-17.38574,6.209-33.32227,6.209-30.83887,0-49.25928-20.28223-49.25928-50.5s17.79932-54.01953,46.98291-54.01953c32.70117,0,41.39355,28.76855,41.39355,47.18945a68.65755,68.65755,0,0,1-.62109,8.48535Zm53.39746-13.03906c.207-11.58984-4.75977-29.59668-25.25-29.59668-18.41992,0-26.49219,16.97168-27.94043,29.59668Z" transform="translate(-125.86974 -294.25004)"/><path class="cls-4" d="M1056.94141,642.93848c0-11.79785-.20605-21.93945-.82715-31.25293h15.93652l.62109,19.66211h.82715c4.55371-13.45312,15.52344-21.93848,27.73438-21.93848a19.69074,19.69074,0,0,1,5.17383.62109V627.209a27.34408,27.34408,0,0,0-6.209-.62109c-12.832,0-21.93848,9.72754-24.42187,23.3877a51.24206,51.24206,0,0,0-.82812,8.48535v53.39844h-18.00684Z" transform="translate(-125.86974 -294.25004)"/><path class="cls-4" d="M1125.44434,638.79883c0-10.34863-.207-18.834-.82715-27.11328h16.14355l1.03516,16.55762h.41309c4.96777-9.52051,16.55762-18.834,33.11523-18.834,13.86719,0,35.39258,8.27832,35.39258,42.63574v59.81445h-18.21387V654.11426c0-16.14355-6.002-29.59668-23.18066-29.59668-12.00391,0-21.31738,8.48633-24.42187,18.62793a26.17752,26.17752,0,0,0-1.24219,8.48535v60.22852h-18.21387Z" transform="translate(-125.86974 -294.25004)"/><path class="cls-4" d="M1295.77637,711.85938l-1.44922-12.625h-.62109c-5.58789,7.86426-16.35059,14.90137-30.63086,14.90137-20.2832,0-30.63184-14.28027-30.63184-28.76855,0-24.21582,21.52441-37.46191,60.22852-37.25488V646.043c0-8.2793-2.27734-23.18066-22.7666-23.18066a49.90859,49.90859,0,0,0-26.0791,7.45117l-4.13867-12.00488c8.27832-5.38086,20.28223-8.89941,32.9082-8.89941,30.63086,0,38.082,20.9043,38.082,40.98047v37.46094a141.003,141.003,0,0,0,1.65625,24.00879ZM1293.085,660.7373c-19.86914-.41309-42.42871,3.10449-42.42871,22.56055,0,11.79688,7.86523,17.38477,17.17871,17.38477,13.03906,0,21.31836-8.27832,24.21582-16.76465a18.99622,18.99622,0,0,0,1.03418-5.79492Z" transform="translate(-125.86974 -294.25004)"/><path class="cls-4" d="M1361.17481,582.917v28.76855h26.07813v13.86719h-26.07812v54.01953c0,12.418,3.51855,19.45508,13.66016,19.45508a40.49919,40.49919,0,0,0,10.55469-1.24219l.82813,13.66016c-3.51855,1.44922-9.10645,2.4834-16.14355,2.4834-8.48535,0-15.31543-2.69043-19.66211-7.65723-5.17383-5.38184-7.03711-14.28125-7.03711-26.07812V625.55273h-15.52246V611.68555H1343.375V587.67773Z" transform="translate(-125.86974 -294.25004)"/><path class="cls-4" d="M1428.02148,583.53809c.207,6.209-4.3457,11.17578-11.58984,11.17578a10.82973,10.82973,0,0,1-10.96973-11.17578,11.0987,11.0987,0,0,1,11.38379-11.38379C1423.67578,572.1543,1428.02148,577.12207,1428.02148,583.53809Zm-20.2832,128.32129V611.68555h18.21387V711.85938Z" transform="translate(-125.86974 -294.25004)"/><path class="cls-4" d="M1546.81934,660.94434c0,37.04785-25.66406,53.19141-49.87988,53.19141-27.11328,0-48.0166-19.86914-48.0166-51.53516,0-33.5293,21.93848-53.19141,49.67285-53.19141C1527.36426,609.40918,1546.81934,630.31348,1546.81934,660.94434Zm-79.47656,1.03516c0,21.93848,12.625,38.49609,30.4248,38.49609,17.38574,0,30.42481-16.35059,30.42481-38.91016,0-16.97168-8.48633-38.49609-30.01074-38.49609C1476.65625,623.06934,1467.34277,642.93848,1467.34277,661.97949Z" transform="translate(-125.86974 -294.25004)"/><path class="cls-4" d="M1569.78809,638.79883c0-10.34863-.207-18.834-.82715-27.11328h16.14355l1.03516,16.55762h.41309c4.96777-9.52051,16.55762-18.834,33.11523-18.834,13.86719,0,35.39258,8.27832,35.39258,42.63574v59.81445h-18.21387V654.11426c0-16.14355-6.002-29.59668-23.18066-29.59668-12.00391,0-21.31738,8.48633-24.42187,18.62793a26.17752,26.17752,0,0,0-1.24219,8.48535v60.22852h-18.21387Z" transform="translate(-125.86974 -294.25004)"/><path class="cls-4" d="M1740.11914,711.85938l-1.44922-12.625h-.62109c-5.58789,7.86426-16.35059,14.90137-30.63086,14.90137-20.2832,0-30.63184-14.28027-30.63184-28.76855,0-24.21582,21.52441-37.46191,60.22852-37.25488V646.043c0-8.2793-2.27734-23.18066-22.76758-23.18066a49.90776,49.90776,0,0,0-26.07812,7.45117l-4.13867-12.00488c8.27832-5.38086,20.2832-8.89941,32.9082-8.89941,30.63086,0,38.082,20.9043,38.082,40.98047v37.46094a141.00287,141.00287,0,0,0,1.65625,24.00879Zm-2.69043-51.12207c-19.86914-.41309-42.42969,3.10449-42.42969,22.56055,0,11.79688,7.86523,17.38477,17.17871,17.38477,13.03906,0,21.31836-8.27832,24.21582-16.76465a18.99789,18.99789,0,0,0,1.03516-5.79492Z" transform="translate(-125.86974 -294.25004)"/><path class="cls-4" d="M1784.40527,564.91016h18.21387V711.85938h-18.21387Z" transform="translate(-125.86974 -294.25004)"/></g></g></svg>